<svg preserveAspectRatio="none" overflow="visible" style="display: block;" width="94.5131" height="41.0411" viewBox="0 0 94.5131 41.0411" fill="none" xmlns="http://www.w3.org/2000/svg">
<path id="Union" d="M64.3281 36.7901C64.0461 37.1086 63.9602 37.2325 63.7402 37.5968C63.0882 38.5033 62.1502 40.0736 61.5625 41.0411C61.1757 40.5436 58.8922 37.2378 58.7636 36.8087C59.1434 36.8037 59.3469 36.8203 59.7236 36.8634C59.9732 37.1306 61.2475 39.2874 61.5771 39.8048C61.8807 39.0903 62.7871 37.4446 63.2793 36.8585C63.6348 36.814 63.9708 36.805 64.3281 36.7901ZM12.7558 36.8058C13.2642 37.6425 13.7295 38.6662 14.1474 39.5616C14.4592 39.0859 15.3247 37.0048 15.7451 36.9376C16.0568 37.1378 16.7669 38.9806 17.1357 39.5255C17.5241 38.6588 18.0218 37.7008 18.4443 36.8399C18.7932 36.834 19.1703 36.8444 19.5215 36.8478C19.2722 37.1525 19.0907 37.5183 18.9013 37.8653C18.3639 38.8221 17.7642 40.1579 17.1924 41.0382C16.8568 40.5598 15.9834 38.8644 15.6513 38.2169C15.3689 38.9575 14.6206 40.3782 14.1592 41.0187C13.3696 39.6605 12.6322 38.2727 11.9482 36.8585L12.7558 36.8058ZM27.4677 36.7814C27.8712 36.7859 29.1673 36.7743 29.4004 37.0128C29.4264 37.1969 29.4367 37.2336 29.3574 37.4073C29.1306 37.5574 29.0201 37.5264 28.7695 37.4698C28.1923 37.3395 26.41 37.235 25.9707 37.6534C25.8842 37.8781 25.8953 37.7821 25.9326 38.0206C26.4407 38.703 28.2295 38.1659 29.4179 38.962C29.5836 39.2757 29.6214 39.3831 29.7246 39.7159C29.4639 40.8047 29.0075 40.8799 27.9785 40.9903C27.1174 41.0406 26.2329 40.9827 25.375 40.9054C25.0335 40.8746 25.0441 40.498 25.1172 40.2403C25.5038 40.0272 28.9538 40.95 28.8974 39.6739C28.5721 38.9137 25.2862 39.5426 25.1103 38.2081C24.9671 37.1194 25.8559 36.9121 26.6826 36.8048C26.9438 36.7855 27.2058 36.7778 27.4677 36.7814ZM44.4814 36.8067C44.8787 36.7402 46.7637 36.7708 47.1045 36.9474C47.1829 37.1184 47.23 37.3795 47.0967 37.5255C46.3514 37.3942 44.6465 37.1818 43.9209 37.6222C43.843 37.6694 43.7792 37.9322 43.7968 38.0274C43.814 38.1202 43.831 38.1444 43.9092 38.2228C44.9874 38.5208 46.2877 38.3175 47.2353 38.9952C47.7524 39.3651 47.6654 39.944 47.2968 40.3966C46.8973 40.887 46.3111 40.9375 45.7275 41.004C45.2776 41.014 43.2847 40.9785 42.9004 40.8282C42.8155 40.6804 42.8562 40.5088 42.872 40.3282C43.1348 39.9265 46.5467 40.9422 46.7607 39.7189C46.2972 38.9105 43.1141 39.5354 42.915 38.1349C42.7734 37.1365 43.7785 36.9022 44.4814 36.8067ZM80.1523 36.8106C80.5108 36.7826 82.2914 36.811 82.5342 36.9552C82.5856 37.1365 82.57 37.356 82.4472 37.5001C82.2505 37.4724 82.0538 37.4453 81.8564 37.42C81.2033 37.3367 79.2183 37.0826 79.0976 38.0382C79.5771 38.6359 82.5868 38.2468 82.9111 39.3302C83.34 40.7647 81.6386 40.9368 80.8271 40.9991C80.3847 41.0112 78.4741 41.0131 78.2529 40.7442C78.2494 40.5416 78.2436 40.4783 78.2939 40.2794C78.8093 39.9625 81.6269 40.9454 82.1377 39.7901C81.9755 38.7995 78.4784 39.6782 78.3379 38.0636C78.24 36.9353 79.3353 36.8697 80.1523 36.8106ZM69.4668 36.8097C70.2003 36.7262 71.0387 36.8387 71.7607 36.9747C72.1163 37.0416 72.1523 37.3664 72.0683 37.6671C71.9283 37.7322 71.3047 37.5463 71.0752 37.503C70.5871 37.4139 70.0888 37.3901 69.5937 37.4317C68.6343 37.5123 67.7408 37.9233 67.8652 39.044C67.9052 39.394 68.0843 39.7138 68.3623 39.9298C69.016 40.4448 70.199 40.3517 70.9883 40.2628C71.3299 40.2572 71.7762 40.1313 72.0976 40.0177C72.0907 40.2455 72.0695 40.5024 72.0556 40.7325C71.6932 40.8228 71.326 40.8924 70.956 40.9415C69.4927 41.1232 67.0742 40.9595 66.8779 39.0538C66.8275 38.5704 66.9777 38.0874 67.292 37.7169C67.8623 37.0383 68.6428 36.8865 69.4668 36.8097ZM21.7451 36.7667C22.4651 37.343 23.7383 39.9621 24.6816 40.9347C23.8196 40.9706 23.4668 41.1329 23.248 40.1876C22.9144 40.1444 22.3897 40.1472 22.0381 40.1398C21.4886 40.141 20.9391 40.1396 20.3896 40.1349L20.0996 40.8761C19.714 40.9331 19.367 40.9433 18.9785 40.9601C19.2544 40.663 19.736 39.8615 19.9746 39.4903C20.5541 38.5757 21.1444 37.6676 21.7451 36.7667ZM30.1289 36.8429C31.7179 36.8232 33.3075 36.8274 34.8965 36.8556C34.8648 37.0466 34.8373 37.3268 34.7256 37.4581C34.2413 37.5219 33.3614 37.4876 32.8447 37.4815L32.8369 38.964L32.8388 40.9581L32.0224 40.9435C32.021 39.7887 32.0262 38.6333 32.039 37.4786C31.4646 37.4804 30.6536 37.6288 30.2256 37.4015C30.0891 37.188 30.134 37.1277 30.1289 36.8429ZM65.8369 36.8439C65.801 38.2111 65.8022 39.5792 65.8398 40.9464L64.9922 40.9523C64.9806 39.5642 64.9834 38.1752 65.0019 36.7872L65.8369 36.8439ZM49.1982 36.8136C49.8173 36.8084 52.2926 36.7401 52.747 36.8771C52.8247 37.0372 52.8033 37.3373 52.7011 37.4845C52.4364 37.5259 49.8916 37.4943 49.4336 37.4952L49.4072 38.4435C50.2805 38.4058 51.3322 38.4277 52.2197 38.422L52.2246 39.2247C51.5312 39.2037 50.7572 39.2178 50.0576 39.2159L49.4179 39.2179L49.4062 40.2608C50.3874 40.2654 51.8138 40.3049 52.7597 40.2198C52.7843 40.4573 52.7981 40.7073 52.8144 40.9464C51.4054 40.9563 49.9958 40.9527 48.5869 40.9347C48.5851 39.9373 48.5271 37.7942 48.6123 36.8888C48.751 36.8095 49.0259 36.8201 49.1982 36.8136ZM53.9619 36.8155C55.0457 36.8204 57.0666 36.5999 58.0088 37.1583C58.3868 37.3825 58.4505 37.9206 58.4922 38.3331C58.2073 39 58.0142 39.1488 57.4111 39.5138C57.7805 40.0037 58.098 40.3972 58.4853 40.8702C58.3666 40.9574 58.1347 40.9402 57.9629 40.9493C57.8878 40.9528 57.8122 40.9489 57.7383 40.9376C57.3503 40.8783 56.6684 39.8604 56.4131 39.5167C55.917 39.4947 55.361 39.5015 54.8603 39.4972L54.8613 40.9503L53.9306 40.9513C53.9296 40.3221 53.8799 37.2198 53.9619 36.8155ZM35.6601 36.8224C36.6295 36.8545 39.0614 36.7484 39.8857 36.8927C40.0124 37.0216 39.9808 36.9538 39.9892 37.1603C39.772 37.6522 39.0935 37.4856 38.6318 37.4835H36.4892L36.4785 38.4562C37.4241 38.4655 38.37 38.429 39.3193 38.4386L39.3213 39.2345C38.7806 39.2185 38.2219 39.2233 37.6797 39.2208L36.4795 39.2228V40.2628L39.9111 40.2677C39.9132 40.4602 39.9439 40.7363 39.9599 40.9347L35.6386 40.9493L35.6601 36.8224ZM73.1904 36.836C74.396 36.8389 76.1799 36.7768 77.4092 36.8946C77.4995 36.9033 77.5146 37.0022 77.5459 37.086C77.5082 37.3054 77.3329 37.4964 77.1025 37.4815C76.1159 37.4179 75.0459 37.5329 74.0703 37.4356L74.0586 38.4571L76.9101 38.4669L76.8955 39.2442C76.4081 39.212 75.8506 39.2243 75.3574 39.2237L74.0615 39.2218C74.0777 39.5652 74.059 39.9195 74.0468 40.2638C75.1892 40.2681 76.3309 40.2626 77.4726 40.2491L77.4931 40.9337C76.0571 40.9497 74.6201 40.9498 73.1836 40.9347C73.1946 39.5685 73.1962 38.2023 73.1904 36.836ZM21.6894 38.1319C21.4544 38.6439 21.2674 39.0069 20.9111 39.4523C21.3013 39.4476 21.6918 39.4463 22.082 39.4474L22.6894 39.4523C22.5058 39.1341 22.0421 38.2588 21.6894 38.1319ZM57.3545 38.67C58.2787 37.1497 55.7011 37.4734 54.8701 37.4786C54.8643 37.9319 54.851 38.4061 54.8545 38.8575C55.5051 38.8659 56.7908 38.9406 57.3545 38.67ZM52.5732 27.7189C53.7916 27.6418 55.1429 27.9388 56.0976 28.7618C57.262 29.7655 57.4261 31.4499 56.3554 32.6026C55.4759 33.5499 54.2193 33.7422 52.9756 33.7911C51.0843 33.8761 48.7294 33.2577 48.5361 31.006C48.4691 30.293 48.6967 29.5831 49.166 29.0421C50.028 28.0417 51.3353 27.8076 52.5732 27.7189ZM73.6552 27.7823C73.8709 27.8453 77.2335 33.0791 77.6435 33.7403C77.2262 33.744 76.8083 33.7383 76.3916 33.7228C76.0383 33.3478 75.8029 33.0591 75.5683 32.6026C74.993 32.579 74.3603 32.5907 73.7802 32.5899C73.1505 32.5909 72.5194 32.5984 71.8896 32.6114C71.6622 32.9902 71.2892 33.4354 70.9853 33.756C70.5397 33.7399 70.2064 33.7404 69.7656 33.7843C70.0847 33.2118 70.5731 32.5244 70.9394 31.9513C71.823 30.5475 72.7283 29.1575 73.6552 27.7823ZM13.2226 27.7218C14.3926 27.751 15.0989 27.8074 16.1621 28.3253C16.1782 28.6519 16.1644 29.0485 16.1611 29.3819C14.6714 28.6723 11.5336 28.2559 10.4404 29.8253C10.1755 30.2039 10.0749 30.6744 10.1631 31.128C10.5519 33.1326 13.6013 32.9486 15.0713 32.6192C15.4909 32.5138 15.7952 32.4197 16.1904 32.2491L16.1582 33.3009C14.3655 33.8378 11.3822 34.1934 9.83298 32.8741C9.25842 32.394 8.90564 31.6994 8.85544 30.9523C8.70027 28.4438 11.2728 27.7946 13.2226 27.7218ZM82.0176 30.0802C82.838 30.6393 83.8232 31.2718 84.6054 31.8634C84.4903 31.0306 84.554 28.7488 84.5615 27.795C84.9338 27.807 85.3392 27.8025 85.7138 27.8048C85.7225 29.7419 85.7179 31.6792 85.7011 33.6163L85.6972 33.7237L85.6299 33.7745L79.8652 29.8478C79.8421 31.122 79.8582 32.4349 79.8593 33.712L78.5879 33.7335C78.5635 31.7327 78.5665 29.7313 78.5967 27.7306L82.0176 30.0802ZM58.5898 27.7091C60.2881 29.068 62.6602 30.5023 64.4697 31.8439C64.4066 30.683 64.457 28.994 64.4599 27.796L65.6738 27.8136C65.6871 29.7634 65.6795 31.7136 65.6523 33.6632L65.6406 33.7511L65.5625 33.7735C65.0541 33.3677 64.1372 32.8423 63.5674 32.4376C62.3021 31.5398 61.0359 30.6483 59.7226 29.8224L59.7099 33.7198L58.6162 33.7218C58.567 31.7497 58.6159 29.6965 58.5898 27.7091ZM20.5498 27.7228C20.7346 27.8138 24.0863 33.1193 24.5449 33.7618C24.132 33.7243 23.5828 33.7212 23.1592 33.7071C22.8298 33.3439 22.6686 32.9999 22.4785 32.5577C21.9313 32.59 21.2741 32.5765 20.7187 32.5792C20.0709 32.5881 19.4223 32.5933 18.7744 32.5939C18.4991 32.9867 18.2271 33.4222 17.8515 33.7159L16.5547 33.7228C17.0415 33.1795 17.6374 32.2041 18.0537 31.5685C18.8787 30.3088 19.7695 29.0075 20.5498 27.7228ZM42.2959 27.8019C43.762 27.7999 45.5586 27.7067 46.6728 28.8224C47.8335 29.9848 47.6717 31.7352 46.5781 32.8575C45.2526 34.0296 41.6284 33.7261 39.832 33.7228C39.7424 31.9186 39.8049 29.6462 39.8056 27.8077L42.2959 27.8019ZM38.3301 27.8116L38.2968 28.8614L33.5234 28.8556C33.5164 29.2615 33.4927 29.7899 33.5371 30.1817L37.5254 30.1808L37.5224 31.1847C36.5132 31.1981 34.8408 31.2664 33.8779 31.2032L33.8799 31.2042L33.6562 31.1954C33.4088 31.4581 33.5241 32.3101 33.5029 32.7345C33.9517 32.7282 35.1887 32.6851 35.5927 32.7355L35.5937 32.7345C35.5926 32.7342 35.591 32.7348 35.5898 32.7345C36.0441 32.7259 36.4988 32.7212 36.9531 32.7208L38.3164 32.7315L38.3183 32.7325C38.3191 33.0599 38.3242 33.3877 38.333 33.7149C37.638 33.715 36.4743 33.7537 35.8183 33.7091C34.7817 33.7538 33.4304 33.7238 32.3828 33.7179C32.3481 31.7752 32.3719 29.7573 32.375 27.8097L38.3301 27.8116ZM26.6562 27.8067L26.666 32.7315L31.1562 32.7218C31.1504 33.041 31.1584 33.3884 31.1601 33.7101L25.542 33.7296C25.5076 31.8045 25.535 29.7324 25.5498 27.8058L26.6562 27.8067ZM68.8017 27.8067C68.8214 29.7787 68.8206 31.7508 68.7998 33.7228C68.3991 33.7292 67.9974 33.7309 67.5967 33.7276C67.5388 31.836 67.5859 29.7141 67.5859 27.8048L68.8017 27.8067ZM53.5752 32.7774C57.346 32.0446 55.9742 28.2429 52.1572 28.8126C48.3193 29.3351 49.2736 33.3237 53.5752 32.7774ZM44.9287 29.0714C43.8481 28.7194 42.2258 28.8848 41.0625 28.8556L41.082 32.7189C42.3133 32.7245 44.5553 32.9159 45.5166 32.1954C46.4572 31.2284 46.276 29.5105 44.9287 29.0714ZM20.5176 29.6534C20.3005 30.2152 19.7135 30.8846 19.4228 31.4776C19.9036 31.4955 20.385 31.5051 20.8662 31.5069L21.7627 31.5206C21.5898 31.2257 20.749 29.848 20.5176 29.6534ZM73.6904 29.7159C73.3199 30.2463 72.8005 30.9674 72.4814 31.5157C72.9109 31.4928 73.2695 31.4981 73.7002 31.5079L74.9511 31.5157C74.6778 31.1153 73.984 30.0424 73.6904 29.7159ZM80.3867 0.0215868C84.8303 0.0203115 89.479 -0.0444689 93.9052 0.056743C92.4878 1.97958 90.8904 3.88301 89.4619 5.86045L78.124 5.85948H75.0205C72.6185 5.8591 72.4588 5.61223 70.8515 7.49717C70.842 7.49264 70.8338 7.49022 70.8271 7.48741C70.8332 7.48994 70.8402 7.49318 70.8486 7.49717C69.1149 9.99532 67.2832 12.4736 65.5634 14.9542L63.082 18.4728C62.4272 19.4022 61.8807 20.2879 61.0957 21.1222C60.0587 22.1324 58.9507 22.9604 57.4355 22.9308C53.9313 22.8619 52.8377 19.2415 51.5215 16.6573L48.3379 10.4112C48.0185 9.77772 47.1172 8.21277 46.9043 7.66709C46.5877 8.47036 45.9886 9.62334 45.5888 10.4181C44.7891 12.0125 43.9759 13.6005 43.1484 15.1808C42.3853 16.6684 41.6732 18.1836 40.872 19.6534C40.5751 20.1982 40.2793 20.7312 39.8916 21.2198C38.8437 22.5172 36.9667 23.2783 35.3252 22.8028C35.3119 22.7957 35.2984 22.7885 35.2851 22.7814C34.6173 22.6231 33.6918 22.1502 33.2256 21.6407C31.3634 19.6062 29.9677 17.1247 28.3418 14.8995C27.9385 14.3476 27.4792 13.7422 27.124 13.1681L27.1259 13.1671C26.9644 13.0392 22.5105 6.48816 22.1123 5.89854C22.0126 5.88534 21.8854 5.87361 21.7842 5.87315C20.274 5.86481 18.7507 5.83033 17.2402 5.85557C14.2316 5.90571 11.0289 5.40677 8.62107 7.65342C7.63338 8.58314 7.06125 9.87143 7.03415 11.2276C6.99556 12.564 7.39526 13.7435 8.31931 14.7189C9.16016 15.5922 10.2306 16.2108 11.4072 16.503C13.1395 16.9443 15.5147 16.7775 17.3271 16.8028C20.2563 16.8438 23.2807 16.7289 26.2041 16.8155C27.4891 18.4228 29.0935 20.8615 30.2558 22.586L14.4179 22.5851C10.2305 22.5458 6.32704 21.691 3.24997 18.6749C-0.978502 14.53 -1.16014 7.83139 3.17185 3.69834C7.46944 -0.401493 12.7641 0.0236107 18.2041 0.0215868C20.9862 0.0133071 23.7687 0.0194195 26.5508 0.0391649C27.3641 1.09752 28.9454 3.28502 29.6172 4.44541L29.6152 4.44737C30.667 5.99621 31.7275 7.54036 32.7773 9.08897C33.0703 9.52102 33.742 10.4876 33.9746 10.9044C34.6811 11.7698 35.7295 13.4798 36.3388 14.4552C37.8904 11.8139 39.1222 8.93053 40.5771 6.23936C41.4433 4.63727 42.1922 2.65098 43.8252 1.69932C45.6272 0.64931 48.2158 0.629979 50.0234 1.67393C51.984 2.80641 52.571 4.97977 53.6142 6.84288C54.9804 9.4112 56.2588 12.0262 57.623 14.5997C57.7747 14.3653 58.7449 12.9351 58.8535 12.8634C58.8715 12.8253 58.8943 12.7813 58.9218 12.7325C59.3378 11.9951 60.7703 10.1153 61.2265 9.47081L64.164 5.30186C64.9393 4.20581 66.2431 2.18167 67.4092 1.55772C67.4282 1.55598 67.4481 1.54975 67.4687 1.546C67.449 1.54953 67.4303 1.55507 67.4121 1.55674C69.374 0.112506 73.0743 0.0427258 75.4414 0.0284227L80.3867 0.0215868ZM72.8593 8.921C73.3747 9.03901 75.5952 8.99741 76.2549 8.9962L82.75 8.99327C87.5626 8.99327 94.4558 8.55474 94.5127 15.1798C94.5844 23.6113 85.3083 22.5778 79.4736 22.5821L67.4541 22.5899L63.6133 22.5812C64.1413 21.7577 67.3833 17.2228 67.9365 16.7862L79.292 16.8087C81.1501 16.8101 83.0087 16.819 84.8662 16.8019C85.5163 16.7958 86.2096 16.7397 86.8418 16.5782C87.3962 16.4363 87.7149 15.8881 87.7763 15.3487C87.9014 14.2492 87.3165 13.698 86.2617 13.5968C84.7412 13.4256 83.2324 13.4767 81.7119 13.4757L76.125 13.4747C73.7375 13.4739 72.2702 13.5083 69.914 13.212C70.6604 11.9148 72.099 10.2811 72.8593 8.921ZM27.1836 13.1544L27.2265 13.1446L27.6367 13.7062C28.0864 14.3378 28.7345 15.2652 29.042 15.6349C29.1033 15.7087 29.1517 15.7597 29.1816 15.7823V15.7804C28.9358 15.5888 27.5543 13.5563 27.2285 13.1437L27.1836 13.1544ZM70.3711 7.06749C70.4506 7.19828 70.5244 7.30948 70.5957 7.39073C70.6331 7.43333 70.6689 7.46828 70.7031 7.49424L70.7051 7.49327C70.6056 7.41749 70.4922 7.26685 70.3711 7.06749ZM70.75 7.48545C70.7669 7.48194 70.7778 7.48059 70.7871 7.47959C70.7942 7.4788 70.8007 7.47864 70.8086 7.48057C70.7913 7.47629 70.7805 7.47924 70.75 7.48545ZM69.4931 5.14463C69.6369 5.52831 69.7989 5.9306 69.9658 6.29307C70.0534 6.48336 70.1421 6.66271 70.2285 6.82334C70.2586 6.87944 70.2917 6.93141 70.3213 6.98252C70.0456 6.50606 69.7402 5.79934 69.4931 5.14463ZM69.3174 4.65733C69.3473 4.74399 69.3792 4.83303 69.4121 4.92393C69.379 4.83309 69.3474 4.74395 69.3174 4.65733ZM69.0967 3.97764C69.1267 4.08396 69.1653 4.20287 69.207 4.33213C69.2132 4.35121 69.2202 4.37026 69.2265 4.38975C69.1634 4.19716 69.1101 4.02442 69.0722 3.88194C69.0803 3.91231 69.0873 3.9446 69.0967 3.97764ZM68.4258 1.25694C68.7523 2.03304 68.8657 2.8582 69.0185 3.66221C69.024 3.69078 69.033 3.72176 69.041 3.75596C69.0331 3.72193 69.0259 3.69067 69.0205 3.66221C68.8676 2.85822 68.7552 2.03303 68.4287 1.25694C68.4185 1.25382 68.4061 1.2521 68.3926 1.25206C68.405 1.25226 68.4162 1.25404 68.4258 1.25694Z" fill="url(#paint0_radial_0_11)"/>
<defs>
<radialGradient id="paint0_radial_0_11" cx="0" cy="0" r="1" gradientUnits="userSpaceOnUse" gradientTransform="translate(47.2565 11.0205) rotate(90) scale(38 87.5097)">
<stop stop-color="#FFE073"/>
<stop offset="1" stop-color="#C39330"/>
</radialGradient>
</defs>
</svg>
